HIERARCHY
ROOT Hips
{
	OFFSET 56.877701 -32.693596 43.373703
	CHANNELS 6 Xposition Yposition Zposition Zrotation Xrotation Yrotation
	JOINT Chest
	{
		OFFSET -0.779999 1.005800 5.403099
		CHANNELS 6 Xposition Yposition Zposition Zrotation Xrotation Yrotation
		JOINT Chest2
		{
			OFFSET 0.000000 0.000000 4.236801
			CHANNELS 6 Xposition Yposition Zposition Zrotation Xrotation Yrotation
			JOINT Neck
			{
				OFFSET 0.000000 0.000000 9.874401
				CHANNELS 6 Xposition Yposition Zposition Zrotation Xrotation Yrotation
				JOINT Head
				{
					OFFSET 0.000000 0.000002 2.173893
					CHANNELS 6 Xposition Yposition Zposition Zrotation Xrotation Yrotation
					End Site
					{
						OFFSET 0.000000 0.000000 6.508102
					}
				}
			}
			JOINT LeftCollar
			{
				OFFSET 2.681599 -0.377600 5.432499
				CHANNELS 6 Xposition Yposition Zposition Zrotation Xrotation Yrotation
				JOINT LeftShoulder
				{
					OFFSET 5.161499 0.000000 0.000000
					CHANNELS 6 Xposition Yposition Zposition Zrotation Xrotation Yrotation
					JOINT LeftElbow
					{
						OFFSET 0.000000 0.000000 -10.869099
						CHANNELS 6 Xposition Yposition Zposition Zrotation Xrotation Yrotation
						JOINT LeftWrist
						{
							OFFSET 0.000000 0.000000 -13.344799
							CHANNELS 6 Xposition Yposition Zposition Zrotation Xrotation Yrotation
							End Site
							{
								OFFSET 0.000000 0.000000 -2.173901
							}
						}
					}
				}
			}
			JOINT RightCollar
			{
				OFFSET -2.381901 -1.419600 6.136600
				CHANNELS 6 Xposition Yposition Zposition Zrotation Xrotation Yrotation
				JOINT RightShoulder
				{
					OFFSET -4.550499 0.000000 0.000000
					CHANNELS 6 Xposition Yposition Zposition Zrotation Xrotation Yrotation
					JOINT RightElbow
					{
						OFFSET 0.000000 0.000000 -11.106499
						CHANNELS 6 Xposition Yposition Zposition Zrotation Xrotation Yrotation
						JOINT RightWrist
						{
							OFFSET 0.000000 0.000000 -12.874298
							CHANNELS 6 Xposition Yposition Zposition Zrotation Xrotation Yrotation
							End Site
							{
								OFFSET 0.000000 0.000000 -2.173901
							}
						}
					}
				}
			}
		}
	}
	JOINT LeftHip
	{
		OFFSET 2.431900 0.469601 -2.489399
		CHANNELS 6 Xposition Yposition Zposition Zrotation Xrotation Yrotation
		JOINT LeftKnee
		{
			OFFSET 0.000000 -0.000004 -18.200201
			CHANNELS 6 Xposition Yposition Zposition Zrotation Xrotation Yrotation
			JOINT LeftAnkle
			{
				OFFSET 0.000000 0.000000 -16.279900
				CHANNELS 6 Xposition Yposition Zposition Zrotation Xrotation Yrotation
				End Site
				{
					OFFSET 0.000000 -8.394100 0.000000
				}
			}
		}
	}
	JOINT RightHip
	{
		OFFSET -1.987999 -0.073502 -2.713001
		CHANNELS 6 Xposition Yposition Zposition Zrotation Xrotation Yrotation
		JOINT RightKnee
		{
			OFFSET 0.000000 -0.000004 -19.547802
			CHANNELS 6 Xposition Yposition Zposition Zrotation Xrotation Yrotation
			JOINT RightAnkle
			{
				OFFSET 0.000000 0.000000 -14.881199
				CHANNELS 6 Xposition Yposition Zposition Zrotation Xrotation Yrotation
				End Site
				{
					OFFSET 0.000000 -7.922699 0.000000
				}
			}
		}
	}
}
MOTION
Frames: 9
Frame Time: 0.041667
-14.166100 -52.985291 39.000710 4679.439317 14.049796 -11.010429 -0.779998 1.005798 5.403093 3.809879 -10.273481 -11.070352 -0.000003 -0.000001 4.236803 1.479631 1.345895 0.606680 0.000007 0.000000 9.874406 -10.515601 -6.569480 39.445111 -0.000001 -0.000000 2.173901 -1.843577 2.035808 -4.753897 2.681603 -0.377600 5.432503 8.958407 -6.394427 -5.375333 5.161508 -0.000002 -0.000003 115.206372 -118.612669 30.783270 0.000003 0.000004 -10.869107 -313.511830 -6.779588 -351.898149 -0.000007 0.000001 -13.344801 1.051958 -4.041706 -55.931767 -2.381899 -1.419601 6.136600 28.332649 18.953633 17.000725 -4.550502 -0.000005 -0.000007 -1232.537798 -531.305334 -466.759555 0.000005 -0.000010 -11.106498 632.453442 -62.779807 610.370511 -0.000010 -0.000009 -12.874297 -277.507253 0.909330 80.241882 2.431905 0.469600 -2.489393 -325.726858 -34.403834 32.735925 0.000003 -0.000004 -18.200199 282.398761 50.391138 59.962449 0.000005 -0.000001 -16.279898 29.286656 10.468359 -0.236154 -1.987996 -0.073500 -2.712995 -138.472045 -21.244832 -66.931503 0.000002 -0.000001 -19.547798 -1418.703182 17.635487 -334.021495 -0.000009 0.000003 -14.881192 2005.217646 93.933420 -480.067769
-14.165504 -52.982391 38.996403 4679.430137 13.972366 -10.990033 -0.780002 1.005802 5.403100 3.795928 -10.209864 -11.065875 0.000003 -0.000009 4.236805 1.460475 1.369286 0.606624 -0.000004 -0.000004 9.874399 -10.476481 -6.508178 39.473091 -0.000004 0.000006 2.173893 -1.862841 2.013172 -4.701162 2.681598 -0.377596 5.432505 8.911506 -6.404098 -5.425951 5.161505 -0.000002 0.000005 115.707735 -118.576196 31.350893 0.000001 0.000004 -10.869100 -313.641003 -6.923913 -351.774632 -0.000009 -0.000005 -13.344803 0.531213 -3.985795 -57.159790 -2.381902 -1.419602 6.136592 28.325891 18.973997 17.116895 -4.550502 -0.000004 0.000000 -1232.385567 -531.232716 -466.630000 0.000009 -0.000013 -11.106491 632.982754 -62.842119 610.589296 -0.000014 -0.000003 -12.874299 -277.442831 0.990402 80.061715 2.431895 0.469600 -2.489389 -325.772484 -34.377380 32.674911 0.000004 -0.000004 -18.200207 282.368981 50.420412 60.023853 -0.000006 -0.000001 -16.279896 29.270933 10.453380 -0.233251 -1.988000 -0.073500 -2.712996 -138.440531 -21.295917 -66.847553 -0.000002 0.000002 -19.547798 -1418.929070 17.445297 -334.018380 -0.000010 -0.000003 -14.881191 2006.313755 93.816535 -481.016346
-14.165901 -52.978798 38.991005 4679.413089 13.901962 -10.979456 -0.779995 1.005798 5.403098 3.792863 -10.150798 -11.047389 0.000004 -0.000005 4.236794 1.446152 1.397351 0.607143 -0.000002 0.000003 9.874394 -10.462256 -6.501060 39.434476 0.000005 0.000002 2.173901 -1.845074 2.008936 -4.582572 2.681603 -0.377597 5.432495 8.843555 -6.398021 -5.439825 5.161508 -0.000002 0.000002 116.271307 -118.598845 31.957704 0.000000 -0.000001 -10.869108 -313.903309 -7.121218 -351.638656 -0.000003 -0.000005 -13.344792 0.389375 -3.849797 -58.091551 -2.381896 -1.419593 6.136593 28.327446 18.994095 17.220604 -4.550514 -0.000008 0.000007 -1232.249400 -531.162884 -466.466731 0.000013 -0.000005 -11.106483 633.301424 -63.156813 610.599623 0.000009 -0.000004 -12.874292 -277.703006 1.107629 79.863845 2.431900 0.469593 -2.489401 -325.829147 -34.364195 32.626571 0.000004 -0.000005 -18.200201 282.387478 50.484633 60.065148 0.000003 0.000004 -16.279905 29.240675 10.447669 -0.244089 -1.987998 -0.073507 -2.713002 -138.387583 -21.371822 -66.783561 -0.000005 -0.000009 -19.547794 -1419.107311 17.314082 -333.994338 0.000004 -0.000005 -14.881194 2007.092506 93.748376 -481.702206
-14.166206 -52.975597 38.985306 4679.393855 13.848763 -10.970387 -0.779996 1.005796 5.403093 3.795560 -10.110973 -11.024891 -0.000004 -0.000003 4.236804 1.436900 1.432817 0.609369 0.000005 -0.000009 9.874401 -10.386422 -6.440081 39.480068 0.000004 0.000001 2.173894 -1.889018 1.994368 -4.546870 2.681599 -0.377604 5.432502 8.765803 -6.385862 -5.428797 5.161504 0.000004 0.000002 116.114800 -118.671955 31.957550 0.000009 0.000007 -10.869095 -314.244955 -7.085768 -351.815394 0.000001 -0.000001 -13.344799 -0.079824 -3.964999 -58.453852 -2.381898 -1.419606 6.136588 28.319791 19.018587 17.348219 -4.550512 -0.000003 0.000001 -1232.166454 -531.078463 -466.415150 0.000004 -0.000013 -11.106485 633.863302 -63.187521 610.789667 0.000013 -0.000001 -12.874294 -277.689018 1.061242 79.319977 2.431903 0.469598 -2.489401 -325.873844 -34.360377 32.595425 0.000003 -0.000011 -18.200201 282.404417 50.560373 60.099743 -0.000000 0.000002 -16.279900 29.192959 10.431048 -0.227593 -1.987999 -0.073503 -2.712997 -138.360508 -21.400938 -66.747730 -0.000007 0.000001 -19.547800 -1419.294950 17.172738 -333.960269 -0.000009 0.000000 -14.881195 2007.699464 93.672595 -482.172068
-14.166603 -52.972191 38.978607 4679.376370 13.813454 -10.972164 -0.779996 1.005801 5.403090 3.802421 -10.086690 -10.992570 0.000002 -0.000003 4.236804 1.441110 1.465796 0.614026 -0.000004 0.000008 9.874396 -10.366647 -6.417898 39.532435 -0.000004 0.000003 2.173891 -1.888241 1.993754 -4.525813 2.681594 -0.377590 5.432502 8.679553 -6.358325 -5.379197 5.161505 0.000002 -0.000003 115.173245 -118.583654 31.258023 -0.000004 0.000004 -10.869100 -315.081271 -7.059531 -351.973418 -0.000003 0.000000 -13.344806 -0.290104 -4.267162 -59.417086 -2.381909 -1.419592 6.136592 28.277553 19.042183 17.510868 -4.550508 -0.000011 -0.000005 -1232.036079 -530.970327 -466.231172 0.000000 -0.000006 -11.106502 634.440317 -63.255837 610.959219 -0.000002 -0.000002 -12.874299 -277.677461 1.046772 79.367085 2.431900 0.469604 -2.489395 -325.906301 -34.369737 32.584678 0.000005 0.000005 -18.200211 282.410127 50.618433 60.138224 0.000001 0.000009 -16.279905 29.149991 10.422876 -0.187861 -1.987998 -0.073496 -2.713009 -138.363896 -21.387757 -66.748836 0.000000 -0.000002 -19.547798 -1419.406309 17.076238 -333.919889 -0.000007 -0.000002 -14.881196 2008.044142 93.636382 -482.416971
-14.167000 -52.968395 38.971600 4679.363693 13.784799 -10.974547 -0.779995 1.005807 5.403100 3.805960 -10.069050 -10.963983 0.000003 0.000004 4.236801 1.453629 1.488565 0.618626 -0.000001 -0.000006 9.874395 -10.281016 -6.380679 39.646707 0.000001 0.000006 2.173895 -1.904851 2.013351 -4.506175 2.681596 -0.377601 5.432504 8.582945 -6.310236 -5.308541 5.161501 -0.000000 -0.000004 115.460523 -118.690465 31.577300 0.000004 -0.000002 -10.869096 -315.623042 -7.183949 -351.917956 -0.000007 0.000000 -13.344797 -0.340560 -3.982976 -60.544962 -2.381908 -1.419600 6.136594 28.227879 19.094393 17.704132 -4.550510 -0.000013 0.000002 -1231.869860 -530.840882 -465.976597 0.000006 -0.000010 -11.106487 635.155793 -62.969385 611.316192 -0.000004 -0.000010 -12.874295 -277.387451 1.225977 79.706020 2.431902 0.469604 -2.489397 -325.947883 -34.387349 32.570204 0.000001 -0.000007 -18.200209 282.413897 50.657587 60.175538 0.000006 -0.000001 -16.279898 29.106564 10.408288 -0.118487 -1.987995 -0.073492 -2.713008 -138.376054 -21.358473 -66.760134 -0.000005 -0.000008 -19.547798 -1419.680500 16.912474 -333.852980 0.000002 -0.000004 -14.881195 2007.808310 93.603522 -481.889626
-14.167503 -52.963997 38.964703 4679.356699 13.764329 -10.978691 -0.779998 1.005802 5.403098 3.805928 -10.060104 -10.932519 0.000002 -0.000004 4.236803 1.477612 1.498344 0.622458 0.000003 -0.000007 9.874395 -10.184413 -6.322465 39.765457 -0.000003 0.000001 2.173897 -1.914782 2.045728 -4.521791 2.681597 -0.377604 5.432492 8.506018 -6.261283 -5.225551 5.161507 -0.000002 0.000002 115.669909 -118.787098 31.874065 -0.000008 0.000002 -10.869102 -316.611807 -7.362232 -351.883806 0.000002 0.000004 -13.344793 -0.353634 -3.793740 -61.805870 -2.381903 -1.419603 6.136588 28.101637 19.184972 18.059724 -4.550500 -0.000006 -0.000000 -1230.613324 -534.418589 -465.912393 -0.000014 -0.000006 -11.106494 631.351323 -63.584628 611.156311 0.000000 -0.000010 -12.874293 -277.960832 1.328708 79.927365 2.431898 0.469600 -2.489399 -326.001186 -34.411692 32.548942 0.000006 -0.000004 -18.200203 282.417339 50.668823 60.210809 0.000005 0.000002 -16.279902 29.053617 10.393955 -0.005745 -1.987998 -0.073498 -2.713001 -138.395943 -21.316471 -66.782373 -0.000010 -0.000003 -19.547798 -1419.621488 16.937928 -333.803721 0.000003 -0.000001 -14.881192 2007.540785 93.663600 -481.647018
-14.167206 -52.959900 38.959507 4679.350142 13.736353 -10.983983 -0.780001 1.005798 5.403099 3.804305 -10.039967 -10.890787 -0.000001 -0.000005 4.236798 1.505590 1.500558 0.625871 0.000010 -0.000005 9.874406 -10.041336 -6.201581 39.796975 0.000005 0.000006 2.173891 -1.950048 2.074044 -4.586603 2.681602 -0.377607 5.432512 8.469297 -6.241479 -5.173595 5.161506 0.000004 0.000000 116.008263 -118.865441 32.351881 0.000009 -0.000001 -10.869095 -317.610654 -7.561994 -351.836705 0.000007 0.000001 -13.344791 -0.868037 -3.725452 -62.872438 -2.381892 -1.419606 6.136601 27.921388 19.260305 18.479090 -4.550511 -0.000004 0.000008 -1230.293015 -534.473176 -465.816989 -0.000012 -0.000003 -11.106495 631.551475 -63.682580 611.332311 -0.000009 -0.000003 -12.874295 -278.023069 1.360597 80.255904 2.431903 0.469601 -2.489397 -326.057931 -34.423679 32.515064 0.000004 -0.000006 -18.200205 282.390374 50.634928 60.257759 -0.000001 0.000002 -16.279905 29.008971 10.358618 0.168054 -1.988001 -0.073505 -2.713001 -138.391995 -21.308848 -66.785084 -0.000006 -0.000009 -19.547798 -1419.627389 16.920271 -333.757822 -0.000005 -0.000000 -14.881195 2007.401340 93.693291 -481.520960
-14.167007 -52.955795 38.956604 4679.354951 13.653631 -11.003554 -0.779998 1.005799 5.403093 3.783825 -9.955935 -10.828141 -0.000001 0.000006 4.236799 1.536743 1.491266 0.627721 0.000003 -0.000002 9.874402 -9.988763 -6.178824 39.904769 0.000000 0.000006 2.173890 -1.936540 2.096007 -4.615955 2.681599 -0.377604 5.432494 8.473272 -6.246223 -5.133150 5.161510 -0.000002 0.000002 116.482005 -118.990679 32.991740 -0.000003 0.000004 -10.869093 -318.348724 -7.714552 -351.804575 0.000009 -0.000007 -13.344792 -1.861659 -3.600752 -64.369950 -2.381903 -1.419602 6.136595 27.693550 19.323128 18.967466 -4.550510 -0.000011 0.000007 -1229.904295 -534.616282 -465.698144 -0.000006 -0.000013 -11.106493 631.582128 -64.229234 611.438261 -0.000007 0.000007 -12.874290 -278.279665 1.496648 80.832311 2.431901 0.469601 -2.489393 -326.148090 -34.377350 32.444030 -0.000001 -0.000000 -18.200207 282.381877 50.582407 60.287744 -0.000002 0.000001 -16.279903 28.956809 10.331129 0.343863 -1.988001 -0.073498 -2.713003 -138.382255 -21.368482 -66.747313 -0.000004 -0.000002 -19.547794 -1419.536465 16.975530 -333.726758 -0.000004 0.000002 -14.881194 2007.016663 93.772999 -481.261631
